<svg width="22" height="22" viewBox="0 0 22 22" fill="none" xmlns="http://www.w3.org/2000/svg">
<path d="M11.0458 11.9167C11.0458 11.9258 11.0431 11.9347 11.038 11.9422C11.033 11.9497 11.0258 11.9556 11.0174 11.959C11.0091 11.9625 10.9999 11.9634 10.991 11.9616C10.9821 11.9599 10.9739 11.9555 10.9675 11.9491C10.9611 11.9427 10.9568 11.9345 10.955 11.9256C10.9532 11.9168 10.9541 11.9075 10.9576 11.8992C10.961 11.8908 10.9669 11.8836 10.9744 11.8786C10.982 11.8736 10.9908 11.8709 10.9999 11.8708C11.0059 11.8708 11.0119 11.872 11.0174 11.8743C11.023 11.8766 11.0281 11.88 11.0323 11.8843C11.0366 11.8885 11.04 11.8936 11.0423 11.8992C11.0446 11.9047 11.0458 11.9107 11.0458 11.9167" stroke="#96A1DB" stroke-width="1.5" stroke-linecap="round" stroke-linejoin="round"/>
<path d="M14.6667 19.25H7.33333C6.11776 19.25 4.95197 18.7671 4.09243 17.9076C3.23289 17.048 2.75 15.8822 2.75 14.6667V10.2667C2.75001 9.57929 2.90461 8.90074 3.20237 8.28122C3.50013 7.6617 3.93342 7.11709 4.47015 6.6877L8.13682 3.75437C8.94951 3.10421 9.95927 2.75 11 2.75C12.0408 2.75 13.0505 3.10421 13.8632 3.75437L17.5299 6.6877C18.0666 7.1171 18.4999 7.66172 18.7977 8.28123C19.0954 8.90075 19.25 9.5793 19.25 10.2667V14.6667C19.25 15.8822 18.7671 17.048 17.9076 17.9076C17.048 18.7671 15.8822 19.25 14.6667 19.25Z" stroke="#96A1DB" stroke-width="1.5" stroke-linecap="round" stroke-linejoin="round"/>
<path d="M14.2543 11.9167C14.2543 11.9258 14.2516 11.9347 14.2465 11.9422C14.2415 11.9497 14.2343 11.9556 14.2259 11.959C14.2176 11.9625 14.2084 11.9634 14.1995 11.9616C14.1906 11.9599 14.1824 11.9555 14.176 11.9491C14.1696 11.9427 14.1653 11.9345 14.1635 11.9256C14.1617 11.9168 14.1626 11.9075 14.1661 11.8992C14.1695 11.8908 14.1754 11.8836 14.1829 11.8786C14.1905 11.8736 14.1993 11.8709 14.2084 11.8708C14.2144 11.8708 14.2204 11.872 14.2259 11.8743C14.2315 11.8766 14.2366 11.88 14.2408 11.8843C14.2451 11.8885 14.2485 11.8936 14.2508 11.8992C14.2531 11.9047 14.2543 11.9107 14.2543 11.9167" stroke="#96A1DB" stroke-width="1.5" stroke-linecap="round" stroke-linejoin="round"/>
<path d="M7.83727 11.9167C7.83726 11.9258 7.83457 11.9347 7.82953 11.9422C7.82449 11.9497 7.81733 11.9556 7.80896 11.959C7.80058 11.9625 7.79137 11.9634 7.78249 11.9616C7.7736 11.9599 7.76544 11.9555 7.75903 11.9491C7.75263 11.9427 7.74826 11.9345 7.74649 11.9256C7.74472 11.9168 7.74562 11.9075 7.74908 11.8992C7.75254 11.8908 7.75841 11.8836 7.76593 11.8786C7.77346 11.8736 7.78232 11.8709 7.79138 11.8708C7.7974 11.8708 7.80337 11.872 7.80895 11.8743C7.81452 11.8766 7.81958 11.88 7.82384 11.8843C7.82811 11.8885 7.83149 11.8936 7.83379 11.8992C7.8361 11.9047 7.83728 11.9107 7.83727 11.9167" stroke="#96A1DB" stroke-width="1.5" stroke-linecap="round" stroke-linejoin="round"/>
</svg>
