<svg width="22" height="22" viewBox="0 0 22 22" fill="none" xmlns="http://www.w3.org/2000/svg">
<path d="M17.9444 17.9465C18.5494 17.3434 18.5494 16.3662 17.9444 15.763C17.3394 15.1599 16.3595 15.1599 15.7545 15.763C15.1495 16.3662 15.1495 17.3434 15.7545 17.9465C16.3595 18.5497 17.3394 18.5497 17.9444 17.9465Z" stroke="#96A1DB" stroke-width="1.5" stroke-linecap="round" stroke-linejoin="round"/>
<path d="M15.641 4.191C14.3145 3.2835 12.7113 2.75 10.9815 2.75C10.4838 2.75 9.99888 2.80133 9.52588 2.88567" stroke="#96A1DB" stroke-width="1.5" stroke-linecap="round" stroke-linejoin="round"/>
<path d="M16.8481 3.60071C15.9929 3.60071 15.3008 4.29187 15.3008 5.14437C15.3008 5.99779 15.9947 6.68896 16.849 6.68988C17.7043 6.68988 18.3964 5.99871 18.3964 5.14621C18.3964 4.29279 17.7024 3.60071 16.8481 3.60071Z" stroke="#96A1DB" stroke-width="1.5" stroke-linecap="round" stroke-linejoin="round"/>
<path d="M4.19375 6.35065C3.28442 7.67431 2.75 9.27481 2.75 11.0009C2.75 11.4977 2.80133 11.9817 2.88567 12.4538" stroke="#96A1DB" stroke-width="1.5" stroke-linecap="round" stroke-linejoin="round"/>
<path d="M3.60254 5.14706C3.60254 6.00048 4.29462 6.69165 5.14987 6.69073C6.00512 6.69073 6.69812 5.99865 6.69812 5.14523C6.69812 4.29181 6.00604 3.60065 5.15079 3.60156C4.29554 3.60156 3.60254 4.29365 3.60254 5.14706" stroke="#96A1DB" stroke-width="1.5" stroke-linecap="round" stroke-linejoin="round"/>
<path d="M17.8062 15.6502C18.7155 14.3266 19.2499 12.727 19.2499 11.0009C19.2499 10.5041 19.1986 10.0201 19.1142 9.54797" stroke="#96A1DB" stroke-width="1.5" stroke-linecap="round" stroke-linejoin="round"/>
<path d="M18.3973 16.8547C18.3973 16.0013 17.7053 15.3101 16.85 15.311C15.9948 15.311 15.3018 16.0031 15.3018 16.8565C15.3018 17.71 15.9938 18.4011 16.8491 18.4002C17.7043 18.3993 18.3973 17.7072 18.3973 16.8547Z" stroke="#96A1DB" stroke-width="1.5" stroke-linecap="round" stroke-linejoin="round"/>
<path d="M6.35889 17.809C7.6853 18.7165 9.28855 19.25 11.0183 19.25C11.5161 19.25 12.001 19.1987 12.474 19.1144" stroke="#96A1DB" stroke-width="1.5" stroke-linecap="round" stroke-linejoin="round"/>
<path d="M5.15177 18.3993C6.00702 18.3993 6.6991 17.7082 6.6991 16.8557C6.6991 16.0023 6.00518 15.3111 5.15085 15.3102C4.2956 15.3102 3.60352 16.0013 3.60352 16.8538C3.60352 17.7073 4.29743 18.3993 5.15177 18.3993Z" stroke="#96A1DB" stroke-width="1.5" stroke-linecap="round" stroke-linejoin="round"/>
</svg>
