<svg width="22" height="22" viewBox="0 0 22 22" fill="none" xmlns="http://www.w3.org/2000/svg">
<path d="M9.74521 15.9839L17.5268 8.20235C17.8852 7.84393 18.4655 7.84393 18.823 8.20235L19.8111 9.19051C20.1695 9.54893 20.1695 10.1292 19.8111 10.4867L12.0277 18.2701C11.7866 18.5112 11.4832 18.6798 11.1523 18.7578L9.64162 19.1143C9.19796 19.2188 8.79921 18.821 8.90279 18.3764L9.25662 16.863C9.33454 16.5303 9.50412 16.2259 9.74521 15.9839V15.9839Z" stroke="#96A1DB" stroke-width="1.5" stroke-linecap="round" stroke-linejoin="round"/>
<path d="M16.0693 9.65253L18.361 11.9442" stroke="#96A1DB" stroke-width="1.5" stroke-linecap="round" stroke-linejoin="round"/>
<path d="M6.41683 19.25H6.27841C3.82358 19.25 1.8335 17.2599 1.8335 14.8051C1.8335 13.0487 2.8675 11.4565 4.4735 10.7433L8.1035 9.13C9.308 8.59467 10.0835 7.40117 10.0835 6.08392C10.0835 4.24233 8.59116 2.75 6.74958 2.75H6.41683" stroke="#96A1DB" stroke-width="1.5" stroke-linecap="round" stroke-linejoin="round"/>
</svg>
