<svg width="22" height="22" viewBox="0 0 22 22" fill="none" xmlns="http://www.w3.org/2000/svg">
<path d="M8.6665 19.25H16.4998C16.7406 19.2501 16.979 19.2027 17.2015 19.1106C17.424 19.0185 17.6261 18.8835 17.7963 18.7132C17.9666 18.5429 18.1016 18.3408 18.1937 18.1184C18.2859 17.8959 18.3332 17.6575 18.3332 17.4167V7.79169C18.333 7.42706 18.1881 7.0774 17.9303 6.81956C17.6725 6.56173 17.3228 6.41682 16.9582 6.41669H5.0415C4.67687 6.41682 4.32721 6.56173 4.06938 6.81956C3.81155 7.0774 3.66664 7.42706 3.6665 7.79169V15.5834" stroke="#96A1DB" stroke-width="1.5" stroke-linecap="round" stroke-linejoin="round"/>
<path d="M7.7915 6.41669V5.50002C7.7915 4.64912 8.12952 3.83307 8.7312 3.23139C9.33288 2.62971 10.1489 2.29169 10.9998 2.29169V2.29169C11.8507 2.29169 12.6668 2.62971 13.2685 3.23139C13.8702 3.83307 14.2082 4.64912 14.2082 5.50002V5.50002V6.41669" stroke="#96A1DB" stroke-width="1.5" stroke-linecap="round" stroke-linejoin="round"/>
<path d="M5.08727 19.2501C5.08726 19.2591 5.08456 19.268 5.07952 19.2755C5.07448 19.283 5.06733 19.2889 5.05895 19.2924C5.05058 19.2958 5.04137 19.2967 5.03248 19.2949C5.0236 19.2932 5.01544 19.2888 5.00903 19.2824C5.00262 19.276 4.99826 19.2678 4.99649 19.259C4.99472 19.2501 4.99562 19.2409 4.99908 19.2325C5.00255 19.2241 5.00841 19.217 5.01594 19.2119C5.02347 19.2069 5.03232 19.2042 5.04138 19.2042C5.04741 19.2042 5.05338 19.2053 5.05895 19.2076C5.06452 19.2099 5.06959 19.2133 5.07385 19.2176C5.07811 19.2218 5.08149 19.2269 5.08379 19.2325C5.0861 19.2381 5.08728 19.244 5.08727 19.2501" stroke="#96A1DB" stroke-width="1.5" stroke-linecap="round" stroke-linejoin="round"/>
<path d="M2.33727 19.2501C2.33726 19.2591 2.33457 19.268 2.32952 19.2755C2.32448 19.283 2.31733 19.2889 2.30895 19.2924C2.30058 19.2958 2.29137 19.2967 2.28248 19.2949C2.2736 19.2932 2.26544 19.2888 2.25903 19.2824C2.25262 19.276 2.24826 19.2678 2.24649 19.259C2.24472 19.2501 2.24562 19.2409 2.24908 19.2325C2.25255 19.2241 2.25841 19.217 2.26594 19.2119C2.27347 19.2069 2.28232 19.2042 2.29138 19.2042C2.29741 19.2042 2.30338 19.2053 2.30895 19.2076C2.31452 19.2099 2.31959 19.2133 2.32385 19.2176C2.32811 19.2218 2.33149 19.2269 2.33379 19.2325C2.3361 19.2381 2.33728 19.244 2.33727 19.2501" stroke="#96A1DB" stroke-width="1.5" stroke-linecap="round" stroke-linejoin="round"/>
</svg>
